<?xml version="1.0" encoding="iso-8859-1"?>
<!-- Generator: Adobe Illustrator 19.0.0, SVG Export Plug-In . SVG Version: 6.00 Build 0)  -->
<svg version="1.1" id="Layer_1" xmlns="http://www.w3.org/2000/svg" xmlns:xlink="http://www.w3.org/1999/xlink" x="0px" y="0px"
	 viewBox="0 0 512.001 512.001" style="enable-background:new 0 0 512.001 512.001;" xml:space="preserve">
<g>
	<g>
		<g>
			<path d="M0.001,0v319.837h16.013v16.231h15.578v-16.231h448.816v16.231h15.578v-16.231H512V0H0.001z M496.422,304.259H15.579
				v-8.442h480.844V304.259z M496.422,280.238H15.579v-32.463h480.844V280.238z M496.422,232.198H15.579V15.578h480.844V232.198z"/>
			<rect x="215.965" y="256.218" width="16.013" height="15.578"/>
			<rect x="247.993" y="256.218" width="16.013" height="15.578"/>
			<rect x="280.022" y="256.218" width="16.013" height="15.578"/>
			<rect x="92.09" y="63.546" transform="matrix(0.7071 0.7071 -0.7071 0.7071 94.2061 -43.7208)" width="15.578" height="56.621"/>
			
				<rect x="124.11" y="42.28" transform="matrix(0.7071 0.7071 -0.7071 0.7071 120.5719 -59.3259)" width="15.578" height="147.201"/>
			
				<rect x="150.145" y="118.083" transform="matrix(0.7071 0.7071 -0.7071 0.7071 143.7662 -71.2871)" width="15.578" height="39.63"/>
			
				<rect x="118.746" y="112.087" transform="matrix(-0.7071 0.7071 -0.7071 -0.7071 480.7735 40.6087)" width="226.462" height="15.578"/>
			
				<rect x="270.074" y="104.095" transform="matrix(-0.7071 0.7071 -0.7071 -0.7071 598.1493 -23.994)" width="67.941" height="15.578"/>
			
				<rect x="294.233" y="166.13" transform="matrix(-0.7071 -0.7071 0.7071 -0.7071 384.1009 530.9897)" width="15.578" height="39.63"/>
			
				<rect x="398.353" y="50.128" transform="matrix(0.7071 0.7071 -0.7071 0.7071 216.455 -246.8004)" width="15.578" height="175.511"/>
			<path d="M0.001,512h351.864V352.3H0.001V512z M15.579,367.878h320.708v128.544H15.579V367.878z"/>
			<rect x="39.818" y="392.329" width="16.013" height="15.578"/>
			<rect x="71.847" y="392.329" width="16.013" height="15.578"/>
			<rect x="103.875" y="392.329" width="16.013" height="15.578"/>
			<rect x="135.893" y="392.329" width="16.013" height="15.578"/>
			<rect x="167.922" y="392.329" width="16.013" height="15.578"/>
			<rect x="199.951" y="392.329" width="16.013" height="15.578"/>
			<rect x="231.979" y="392.329" width="16.013" height="15.578"/>
			<rect x="264.008" y="392.329" width="16.013" height="15.578"/>
			<rect x="296.036" y="392.329" width="16.013" height="15.578"/>
			<rect x="39.818" y="424.358" width="16.013" height="15.578"/>
			<rect x="71.847" y="424.358" width="16.013" height="15.578"/>
			<rect x="103.875" y="424.358" width="16.013" height="15.578"/>
			<rect x="135.893" y="424.358" width="16.013" height="15.578"/>
			<rect x="167.922" y="424.358" width="16.013" height="15.578"/>
			<rect x="199.951" y="424.358" width="16.013" height="15.578"/>
			<rect x="231.979" y="424.358" width="16.013" height="15.578"/>
			<rect x="264.008" y="424.358" width="16.013" height="15.578"/>
			<rect x="296.036" y="424.358" width="16.013" height="15.578"/>
			<rect x="39.818" y="456.386" width="16.013" height="15.578"/>
			<rect x="71.847" y="456.386" width="16.013" height="15.578"/>
			<rect x="264.008" y="456.386" width="16.013" height="15.578"/>
			<rect x="296.036" y="456.386" width="16.013" height="15.578"/>
			<rect x="103.875" y="456.386" width="144.118" height="15.578"/>
			<path d="M448.164,384.327c-21.955,0-39.817,17.862-39.817,39.817v48.041c0,21.955,17.862,39.817,39.817,39.817
				c21.955,0,39.817-17.862,39.817-39.817v-48.041C487.98,402.189,470.118,384.327,448.164,384.327z M472.402,472.183
				c0,13.365-10.873,24.238-24.238,24.238c-13.365,0-24.238-10.873-24.238-24.238v-48.041c0-13.365,10.874-24.238,24.238-24.238
				c13.365,0,24.238,10.873,24.238,24.238V472.183z"/>
			<rect x="440.372" y="416.132" width="15.578" height="16.014"/>
		</g>
	</g>
</g>
<g>
</g>
<g>
</g>
<g>
</g>
<g>
</g>
<g>
</g>
<g>
</g>
<g>
</g>
<g>
</g>
<g>
</g>
<g>
</g>
<g>
</g>
<g>
</g>
<g>
</g>
<g>
</g>
<g>
</g>
</svg>
